# xmcd
#
# Track frame offsets:
#	150
#	15139
#	29704
#	44244
#	55364
#	69247
#	81313
#	95653
#	110474
#	124304
#	138101
#	150726
#	165641
#	177249
#	189397
#	203709
#	215620
#	246452
#	252144
#	265297
#
# Disc length: 3718
#
# Revision: 4
# Processed by: cddbd v1.5.1PL0 Copyright (c) Steve Scherf et al.
# Submitted via: CDex 1.40Beta8
# Normalized: r3:DSETVAR2,TDELIM( - )
#
DISCID=230e8414
DTITLE=Various Artist - Jazz and Polar. série noire . Folio Policier
DYEAR=1900
DGENRE=Jazz
TTITLE0=Billie Holiday - Lover Man (Oh Where Can You Be?)
TTITLE1=Louis Armstrong - Blue Again
TTITLE2=Duke Ellington - Cotton Tail
TTITLE3=Nat King Cole Trio - Straighten Up and Fly Right
TTITLE4=Count Basie Orchestra - Jumpin' At The Woodside
TTITLE5=Ella Fitzgerald and Chick Webb Orchestra - A Tisket A Tasket
TTITLE6=Fats Waller - I'm Crazy 'Bout My Baby
TTITLE7=Cab Calloway and his Orchestra - Minnie The Moocher
TTITLE8=Coleman Hawkins - Body and Soul
TTITLE9=Django Reinhardt et Stéphane Grappelli - In a Sentimental Mood
TTITLE10=Benny Goodman and Charlie Christian - Seven come Eleven
TTITLE11=Lionel Hampton and his Orchestra - Flying Home
TTITLE12=Charlie Parker - Ko Ko
TTITLE13=Billy Eckstine Big Band - Opus X
TTITLE14=Dizzy Gillespie - Be-Bop
TTITLE15=Sarah Vaughan and Miles Davis - Nice Work If You Can Get In
TTITLE16=Dexter Gordon and Wardell Gray - The Chase
TTITLE17=Leadbelly - Lining Track
TTITLE18=Big Bill Broonzy - New Shake'm on Down
TTITLE19=Billie Holiday - Night and Day
EXTD=ID3G: 8
EXTT0=
EXTT1=
EXTT2=
EXTT3=
EXTT4=
EXTT5=
EXTT6=
EXTT7=
EXTT8=
EXTT9=
EXTT10=
EXTT11=
EXTT12=
EXTT13=
EXTT14=
EXTT15=
EXTT16=
EXTT17=
EXTT18=
EXTT19=
PLAYORDER=
